<?xml version="1.0" standalone="no"?>
<!DOCTYPE svg PUBLIC "-//W3C//DTD SVG 20010904//EN"
 "http://www.w3.org/TR/2001/REC-SVG-20010904/DTD/svg10.dtd">
<svg version="1.0" xmlns="http://www.w3.org/2000/svg"
 width="700.000000pt" height="700.000000pt" viewBox="0 0 700.000000 700.000000"
 preserveAspectRatio="xMidYMid meet">
<metadata>
Created by potrace 1.14, written by Peter Selinger 2001-2017
</metadata>
<g transform="translate(0.000000,700.000000) scale(0.100000,-0.100000)"
fill="#000000" stroke="none">
<path d="M5150 4979 c-40 -17 -89 -58 -105 -88 -7 -15 -39 -124 -70 -242 -30
-118 -80 -309 -111 -426 -30 -116 -57 -220 -59 -230 -2 -10 -13 -54 -25 -98
-12 -44 -45 -172 -74 -285 -29 -113 -77 -295 -106 -405 -28 -110 -54 -209 -56
-220 -2 -11 -13 -51 -24 -90 -71 -250 -163 -626 -162 -665 2 -92 56 -176 128
-200 50 -17 150 -8 199 18 73 37 104 86 140 225 13 50 44 171 69 267 25 96 57
220 71 275 15 55 41 159 60 230 75 294 118 458 155 600 70 266 170 649 175
670 2 11 28 112 58 225 51 197 53 207 42 262 -14 71 -54 125 -118 156 -52 27
-149 38 -187 21z"/>
<path d="M1240 4619 c-45 -20 -989 -959 -1015 -1009 -23 -45 -29 -109 -15
-175 l12 -57 479 -478 c263 -264 492 -486 508 -494 156 -81 345 34 328 198 -3
30 -13 68 -22 85 -9 18 -191 207 -406 422 l-389 389 391 391 c276 276 396 403
409 432 35 78 10 217 -48 265 -64 52 -157 64 -232 31z"/>
<path d="M5606 4610 c-54 -17 -96 -54 -123 -108 -21 -44 -25 -62 -20 -106 3
-30 13 -68 22 -85 9 -18 191 -207 405 -421 l390 -390 -389 -389 c-215 -215
-398 -405 -408 -423 -27 -50 -24 -152 6 -204 54 -96 197 -133 303 -78 38 20
982 964 1002 1002 31 59 31 107 1 157 -32 56 -979 1006 -1026 1031 -38 19
-122 27 -163 14z"/>
<path d="M2103 4353 c-4 -10 -37 -99 -75 -198 -38 -99 -96 -252 -129 -340 -33
-88 -64 -169 -69 -180 -6 -11 -39 -96 -74 -190 -35 -93 -87 -231 -116 -305
-29 -74 -58 -152 -65 -172 l-14 -38 103 0 104 0 36 108 c21 59 49 141 64 182
l28 75 325 2 326 1 42 -121 c24 -67 53 -150 64 -184 l21 -63 103 0 102 0 -23
63 c-13 34 -62 163 -109 287 -48 124 -160 419 -251 655 l-164 430 -111 3 c-99
2 -112 1 -118 -15z m207 -418 c112 -304 170 -463 170 -469 0 -3 -118 -6 -261
-6 -244 0 -261 1 -256 18 2 9 57 159 122 332 64 173 120 325 122 338 3 13 9
20 14 15 4 -4 44 -107 89 -228z"/>
<path d="M3090 3650 l0 -721 97 3 98 3 0 282 c0 155 2 284 5 287 3 3 83 6 178
6 111 1 194 7 234 16 218 51 322 195 314 433 -5 145 -43 234 -129 305 -107 88
-185 103 -526 105 l-271 2 0 -721z m575 537 c111 -49 162 -157 143 -302 -11
-83 -49 -140 -118 -179 -55 -31 -55 -31 -230 -34 l-175 -4 0 272 0 272 170 -4
c134 -3 178 -8 210 -21z"/>
</g>
</svg>
